<svg width="22" height="22" viewBox="0 0 22 22" xmlns="http://www.w3.org/2000/svg"><title>calendar@3x</title><path d="M6.127 4.502a.793.793 0 0 0 .793-.793v-.665h8.136v.665a.793.793 0 0 0 1.585 0v-.665h3.108c.367 0 .665.298.665.665v2.61H1.586v-2.61c0-.367.298-.665.665-.665h3.083v.665c0 .438.355.793.793.793zm14.287 3.402V19.75a.666.666 0 0 1-.665.665H2.251a.666.666 0 0 1-.665-.665V7.904h18.828zm-.665-6.446h-3.108V.793a.794.794 0 0 0-1.585 0v.665H6.92V.793a.794.794 0 0 0-1.586 0v.665H2.251A2.253 2.253 0 0 0 0 3.709v16.04A2.253 2.253 0 0 0 2.25 22h17.5c1.24 0 2.25-1.01 2.25-2.25V3.71a2.254 2.254 0 0 0-2.25-2.252z" fill="#FF7D19" fill-rule="evenodd"/></svg>