<svg id="Layer_1" xmlns="http://www.w3.org/2000/svg" viewBox="0 0 18 26"><style>.st0{fill:#ff7d19}</style><title>location_icon</title><path class="st0" d="M8.6.7C3.9.7 0 4.6 0 9.3c0 6.6 6.5 16.3 8.6 16.3 2.1 0 8.6-9.7 8.6-16.3 0-4.7-3.9-8.6-8.6-8.6zm6.9 8.6c0 6-5.4 13.4-6.9 14.5-1.4-1.1-6.9-8.5-6.9-14.5 0-3.8 3.1-6.9 6.9-6.9 3.8 0 6.9 3.1 6.9 6.9z"/><path class="st0" d="M8.6 4C5.7 4 3.3 6.4 3.3 9.3s2.4 5.3 5.3 5.3 5.3-2.4 5.3-5.3S11.5 4 8.6 4zm3.5 5.3c0 2-1.6 3.6-3.6 3.6S5 11.3 5 9.3s1.6-3.6 3.6-3.6 3.5 1.6 3.5 3.6z"/></svg>