<svg id="Layer_1" xmlns="http://www.w3.org/2000/svg" viewBox="0 0 306 57.5"><style>.st0{fill:#fff}.st1{fill:#f47c22}</style><path class="st0" d="M93.4 11.3l-7.3 11H86c-.6-.7-3.8-4.8-3.8-4.8-4 3.1-8.5 5.2-13.4 6.6l5.9 7.7v.1c-.9 1.3-12.8 18.9-12.8 18.9h-.1V25.5c-4.1.6-8 .8-11.8.8h-3.8v10.1s-.1.1-.1 0c-.6-1.4-1.4-2.6-2.1-3.4-5-5.3-22.2-7.2-24.7-10-.5-.5-.7-1.4-.7-2 0-2.3 1.4-3.7 5.2-3.8 2.8-.1 5 1.2 5.6 6.5h15.3c0-.6-.1-1.5-.2-2-.8-7.8-4.8-12.5-19.7-12.5-9.2 0-15.4 1.6-18.9 5.1-2.2 2.2-3.3 5.1-3.3 8.8 0 2.5.6 5.6 2.6 7.7 2.2 2.3 7 4 11.8 5.4 6 1.8 12 3.1 13.1 4.7.4.6.7 1.3.7 2.1 0 3.5-3.5 4.5-6.8 4.5-2.1 0-3.5-.6-4.6-1.7-1-1.2-1.5-3-1.6-5.4L2 40.3c.2 4.8.7 8.4 3.7 11 3 2.6 8.4 4.2 17.8 4.2 13.5 0 20.3-3.7 22.6-9.6 0 0 .1 0 .1.1v8.3h30.2L85 42h.1c.7 1 8.2 12.3 8.2 12.3h32.2V23.7s0-.1.1-.1h9.3V11.3H93.4zM110 51c-.1 0-13.6-18.7-13.6-18.7v-.1c.5-.7 5.9-8.2 5.9-8.3l.1-.1h7.6V51z"/><path class="st1" d="M79.3 16.3c-7.1 4.8-17.1 7.6-29.7 7.5-1.1 0-2.2 0-3.4-.1V11.3c11.5.8 19.3-1.2 24-4.7C72 5.2 73.3 3.7 74.3 2h16.2c-2.2 5.8-5.9 10.7-11.2 14.3z"/><path class="st0" d="M153.9 45.1c-2.8 0-4.6 1.6-4.6 4.3v5.1h-5.1V43.7c0-.9 0-1.8-.1-2.8h5c.1 1 .1 1.9.1 2.9h.1c1.3-2.6 2.7-3.1 6-3.1v4.4h-1.4zm12 7c-2.2 0-3.4-1.1-3.5-3.2h12.2c0-5.2-2.3-8.5-8.8-8.5-4.6 0-8.6 2.2-8.6 7.4 0 5.3 4.1 7 8.7 7 3.7 0 7.4-.3 8.5-4.6h-5.5c-.3 1-.7 1.9-3 1.9zm-.1-8.9c1.8 0 3.3.7 3.3 2.9h-6.6c.2-1.3.9-2.9 3.3-2.9zm24.5 11.2v-6.9c0-2.1-.9-3.6-3.3-3.6-2.1 0-3.9 1.6-3.9 4.6v5.9H178V43.7c0-.9 0-1.8-.1-2.8h5c.1.8.1 1.6.1 2.4h.1c1.3-1.8 3.3-2.9 5.7-2.9 4.9 0 6.7 2.8 6.7 6.3v7.7h-5.2zm18.5-3.1c.5 0 1.2-.1 2-.2v3.3c-.5.1-1.8.3-3.5.3-3.9 0-6-1.5-6-4.8v-5.7H198V41h3.3v-2.7l5.1-1.9V41h4.3v3.3h-4.3v4.2c.1 1.8.3 2.8 2.4 2.8zm30.4.1v-5.1c0-4.6-3-5.8-8.2-5.8-3.5 0-7.5 1-7.7 4.5h5.3c0-.9.6-1.7 2.5-1.7 2 0 3 .5 3 2.7h-3.7c-5 0-8 1.4-8 4.6 0 2.8 2.2 4.4 6.1 4.4 2.3 0 4.6-.6 5.8-2.7h.1c0 .7.1 1.7.1 2.2h5c-.3-1.1-.3-2.1-.3-3.1zm-9.3.6c-1.4 0-2.2-.6-2.2-1.4 0-1.1.7-2 4.2-2h2.1c0 1.3-.7 3.4-4.1 3.4zm31.5-8.6c-2.3 0-3.6 1.8-3.6 4.3 0 2.4 1.1 4.3 3.6 4.3 1.7 0 2.9-.9 3-2.6h5.5c-.5 4.4-4.8 5.5-8.8 5.5-4 0-8.7-1.8-8.7-7.2s4.4-7.3 9.1-7.3c3.7 0 7.8 1.1 8.3 5.3h-5.3c-.4-1.6-1.5-2.3-3.1-2.3zm27.4 8v-5.1c0-4.6-3-5.8-8.2-5.8-3.5 0-7.5 1-7.7 4.5h5.3c0-.9.6-1.7 2.5-1.7 2 0 3 .5 3 2.7H280c-5 0-8 1.4-8 4.6 0 2.8 2.2 4.4 6.1 4.4 2.3 0 4.6-.6 5.8-2.7h.1c0 .7.1 1.7.1 2.2h5c-.3-1.1-.3-2.1-.3-3.1zm-9.3.6c-1.4 0-2.2-.6-2.2-1.4 0-1.1.7-2 4.2-2h2.1c0 1.3-.7 3.4-4.1 3.4zm23.2-6.9c-2.8 0-4.6 1.6-4.6 4.3v5.1H293V43.7c0-.9 0-1.8-.1-2.8h5c.1 1 .1 1.9.1 2.9h.1c1.3-2.6 2.7-3.1 6-3.1v4.4h-1.4z"/></svg>